<svg id="a342649a-19ac-4ef5-8e11-a44014c4d530" xmlns="http://www.w3.org/2000/svg" viewBox="0 0 2500 2500" width="45" height="45">
    <defs>
        <style>.ed37daae-c418-40e4-bbd0-bff9b468736f{fill:#12100e;}.b62a00f9-b019-4be0-90a9-3e8c61cba1db{fill:#fff;}
        </style>
    </defs>
    <rect class="ed37daae-c418-40e4-bbd0-bff9b468736f" width="45" height="45" rx="100"/>
    <path class="b62a00f9-b019-4be0-90a9-3e8c61cba1db"
          d="M596.59,848.1a207.36,207.36,0,0,0-1.67-23.88l-12.76-33.06c-3.7-5.46-10.19-14.08-14.4-19.16L426.25,601.54c-4.21-5.08-7.66-14.63-7.66-21.23V576.1a12,12,0,0,1,12-12H893.51c6.6,0,14.24,4.92,17,10.92l366.39,803.56c2.74,6,7,5.91,9.44-.22l322-803.12c2.46-6.13,9.87-11.14,16.47-11.14h440.16a12,12,0,0,1,12,12v4.22c0,6.6-3.89,15.74-8.66,20.31L1951.51,712.57a171.71,171.71,0,0,0-15.82,17.94l-6.36,16.07c-.76,6.56-1.38,17.32-1.38,23.92V1691c0,6.6.62,17.36,1.38,23.92l6.36,16.07a186,186,0,0,0,15.72,18l113.81,111.74c4.71,4.62,8.56,13.81,8.56,20.41v4.22a12,12,0,0,1-12,12H1427.17a12,12,0,0,1-12-12v-4.22c0-6.6,3.87-15.76,8.61-20.36l118.42-115a192.69,192.69,0,0,0,15.27-17c3.67-4.74,6.67-34.39,6.67-41V948.44c0-6.6-2-7-4.4-.84L1191.4,1883.13c-2.42,6.14-9.8,11.16-16.4,11.16h-27c-6.6,0-14.25-4.9-17-10.9L702,947.34c-2.75-6-5-5.5-5,1.1v618c0,6.6.53,17.37,1.17,23.94l17,51.45a192.91,192.91,0,0,0,13.8,19.55L890,1856.82c4.2,5.09,7.64,14.66,7.64,21.26v4.21a12,12,0,0,1-12,12H409.44a12,12,0,0,1-12-12v-4.2c0-6.6,3.43-16.17,7.63-21.26l161.14-195.48a178.33,178.33,0,0,0,13.67-19.63l15.85-51.34c.47-6.58.86-17.37.86-24Z"/>
</svg>