
<svg version="1.1" width="45" height="45" xmlns="http://www.w3.org/2000/svg" xmlns:xlink="http://www.w3.org/1999/xlink" x="0px" y="0px"
	 viewBox="0 0 860.7 860.7" style="enable-background:new 0 0 860.7 860.7;" xml:space="preserve">
<style type="text/css">
	.st0{fill-rule:evenodd;clip-rule:evenodd;fill:#FF4500;}
	.st1{fill:#FFFFFF;}
</style>
<circle class="st0" cx="430.4" cy="430.4" r="430.4"/>
<path class="st1" d="M717.4,430.4c0-34.6-27.9-62.6-62.5-62.7c-0.1,0-0.1,0-0.2,0c-16.9,0-32.4,6.7-43.7,17.5
	c-43.1-30.8-102.2-50.8-167.9-53.4L472,197.2l93.5,20c1.1,24.7,22.1,43.7,46.7,42.6c23.9-1.1,42.6-20.8,42.6-44.6
	c0-24.7-20-44.7-44.7-44.7c-17.1,0-32.6,9.8-40.1,25.2l-104.2-22.1c-3.1-0.5-6.2,0-8.2,1.5c-2.6,1.5-4.1,4.1-4.6,7.2l-31.8,150
	c-66.8,2.1-126.8,22.1-170.5,53.4c-11.8-11.2-27.4-17.5-43.7-17.5c-34.6,0-62.6,27.9-62.7,62.5c0,0.1,0,0.1,0,0.2
	c0,25.7,15.4,47.2,37,57c-1,6.3-1.6,12.6-1.5,19c0,96.5,112.5,175.1,251.1,175.1S682,603.9,682,506.9c0-6.2-0.5-12.8-1.5-19
	C703,477.6,717.4,455.1,717.4,430.4L717.4,430.4z M287.1,475c0-24.7,20-44.7,44.7-44.7c24.6,0,44.7,20,44.7,44.7s-20,44.7-44.7,44.7
	C307.1,520.2,287.1,499.7,287.1,475z M537.2,593.7c-30.8,30.8-89.4,32.9-106.3,32.9c-17.5,0-76-2.6-106.3-32.9
	c-4.5-4.4-4.6-11.7-0.2-16.2c0.1-0.1,0.1-0.1,0.2-0.2c4.4-4.5,11.7-4.6,16.2-0.2c0.1,0.1,0.1,0.1,0.2,0.2
	c19.5,19.5,60.6,26.2,89.9,26.2s70.9-6.7,89.9-26.2c4.4-4.5,11.7-4.6,16.2-0.2c0.1,0.1,0.1,0.1,0.2,0.2
	C541.3,581.9,541.3,589,537.2,593.7z M529,520.2c-24.6,0-44.7-20-44.7-44.7s20-44.7,44.7-44.7c24.7,0,44.7,20,44.7,44.7
	C573.6,499.7,553.6,520.2,529,520.2z"/>
</svg>
